<svg id="bold" enable-background="new 0 0 24 24" height="512" viewBox="0 0 24 24" width="512" xmlns="http://www.w3.org/2000/svg"><path d="m16 13c-1.103 0-2-.897-2-2s.897-2 2-2 2 .897 2 2-.897 2-2 2z"/><path d="m9 13c-1.379 0-2.5-1.121-2.5-2.5s1.121-2.5 2.5-2.5 2.5 1.121 2.5 2.5-1.121 2.5-2.5 2.5z"/><path d="m13.25 20h-8.5c-.414 0-.75-.336-.75-.75v-1.5c0-1.517 1.233-2.75 2.75-2.75h4.5c1.517 0 2.75 1.233 2.75 2.75v1.5c0 .414-.336.75-.75.75z"/><path d="m21 1h-18c-1.654 0-3 1.346-3 3v16c0 1.654 1.346 3 3 3h18c1.654 0 3-1.346 3-3v-16c0-1.654-1.346-3-3-3zm0 20h-18c-.551 0-1-.448-1-1v-14h20v14c0 .552-.449 1-1 1z"/><path d="m17.25 14h-2.5c-.189 0-.373.019-.551.056 1.089.871 1.801 2.194 1.801 3.694v1.25h3.25c.414 0 .75-.336.75-.75v-1.5c0-1.517-1.233-2.75-2.75-2.75z"/></svg>